<svg width="64" height="64" viewBox="0 0 64 64" fill="none" xmlns="http://www.w3.org/2000/svg">
<g opacity="0.24" clip-path="url(#clip0_299_299)">
<path d="M15.8096 20.8392C15.8096 20.1433 16.3737 19.5791 17.0697 19.5791C17.7658 19.5791 18.3299 20.1432 18.3299 20.8392C18.3299 21.5352 17.7658 22.0993 17.0697 22.0993C16.3737 22.0993 15.8096 21.5351 15.8096 20.8392ZM54.6628 37.6889L40.6139 36.4126L36.7086 47.3682H43.653C44.3488 47.3682 44.913 47.9324 44.913 48.6282V52.4081H47.433C48.1287 52.4081 48.6929 52.9723 48.6929 53.6681V61.48H49.3229C50.0187 61.48 50.5829 62.0443 50.5829 62.74C50.5829 63.4358 50.0187 64 49.3229 64H15.3032C14.6075 64 14.0433 63.4358 14.0433 62.74C14.0433 62.0443 14.6075 61.48 15.3032 61.48H15.9332V53.6681C15.9332 52.9723 16.4975 52.4081 17.1932 52.4081H19.7132V48.6282C19.7132 47.9324 20.2774 47.3682 20.9732 47.3682H28.1918L23.3936 32.6427L8.72849 26.877C7.92966 26.6434 7.52382 25.3264 8.52815 24.6317L11.5824 22.7455C11.5836 22.7455 11.585 22.7455 11.585 22.7441C12.9884 21.8797 14.31 24.0255 12.9066 24.8898L11.9945 25.4531L24.8691 30.5146C25.2194 30.6532 25.489 30.9378 25.6062 31.297L30.8429 47.3682H34.0337L38.5675 34.6459C38.7592 34.1092 39.2997 33.7627 39.8691 33.8143L52.4073 34.9534L45.3097 23.2355C45.1107 22.9066 45.0743 22.4959 45.2102 22.1356L50.1785 9.05178L37.1664 12.6769C36.7784 12.784 36.3462 12.6945 36.0338 12.44L25.3832 3.7762L24.5591 17.0678C24.5339 17.4761 24.3122 17.8478 23.9644 18.0621L22.5556 18.9326C21.1269 19.8149 19.8027 17.6704 21.2314 16.7881L22.0844 16.2614L23.0194 1.17433C23.0948 0.244454 24.2287 -0.389573 25.0719 0.274694L37.1186 10.0736L51.9033 5.95598C53.0053 5.71936 53.7857 6.69471 53.419 7.61778L47.7844 22.4554L55.8546 35.7823C56.4439 36.5932 55.7123 37.7638 54.6628 37.6889ZM23.7452 54.9281H18.4532V61.48H23.7452V54.9281ZM38.361 54.9281H26.2651V61.48H38.361V54.9281ZM40.881 54.9281V61.48H46.173V54.9281H40.881ZM42.393 49.8881H22.2332V52.4081H42.393V49.8881Z" fill="#00A650"/>
</g>
<defs>
<clipPath id="clip0_299_299">
<rect width="64" height="64" fill="white"/>
</clipPath>
</defs>
</svg>
