<svg width="43" height="17" viewBox="0 0 43 17" fill="none" xmlns="http://www.w3.org/2000/svg">
<path d="M34.4385 0C34.4096 2.23342 33.5279 4.3334 31.9414 5.91992C30.9744 6.88692 29.816 7.59018 28.5527 8H0.5C0.223858 8 0 8.22386 0 8.5C0 8.77614 0.223858 9 0.5 9H28.6045C29.8457 9.41231 30.9844 10.1094 31.9375 11.0625C33.5276 12.6526 34.4093 14.7594 34.4346 17H34.583C34.6083 14.7595 35.4901 12.6526 37.0801 11.0625C38.663 9.47598 40.763 8.59434 43 8.56543V8.41699C40.7666 8.38808 38.6666 7.50644 37.0801 5.91992C35.4936 4.33701 34.6119 2.23703 34.583 0H34.4385Z" fill="#00A650"/>
</svg>
