<svg width="106" height="106" viewBox="0 0 106 106" fill="none" xmlns="http://www.w3.org/2000/svg">
<g opacity="0.32" filter="url(#filter0_d_299_633)">
<circle cx="52.7998" cy="49.6001" r="39.84" stroke="white" stroke-width="0.32" shape-rendering="crispEdges"/>
</g>
<g opacity="0.6" filter="url(#filter1_d_299_633)">
<circle cx="52.8003" cy="49.6006" r="31.84" stroke="white" stroke-width="0.32" shape-rendering="crispEdges"/>
</g>
<g filter="url(#filter2_d_299_633)">
<circle cx="52.8008" cy="49.6011" r="24" fill="#F2D702"/>
</g>
<g clip-path="url(#clip0_299_633)">
<path d="M59.908 47.993C59.932 45.1733 57.5304 42.5883 54.5544 42.2309C54.4952 42.2238 54.4308 42.2132 54.3625 42.2018C54.2152 42.1774 54.0628 42.1523 53.9091 42.1523C53.2992 42.1523 53.1361 42.5808 53.0932 42.8363C53.0515 43.0848 53.0913 43.2934 53.2113 43.4567C53.4133 43.7313 53.7687 43.7801 54.0542 43.8192C54.1379 43.8307 54.2168 43.8415 54.2829 43.8563C56.9567 44.4538 57.857 45.3931 58.297 48.0441C58.3077 48.1089 58.3126 48.1887 58.3177 48.2734C58.3369 48.5903 58.3769 49.2496 59.0857 49.2496H59.0858C59.1448 49.2496 59.2082 49.2445 59.2742 49.2345C59.9343 49.1341 59.9136 48.5315 59.9037 48.2419C59.9009 48.1604 59.8982 48.0832 59.9051 48.0319C59.907 48.019 59.9079 48.006 59.908 47.993Z" fill="#011109"/>
<path d="M53.7359 41.1956C53.8151 41.2013 53.8901 41.2068 53.9525 41.2164C58.3431 41.8916 60.3623 43.9718 60.9219 48.3968C60.9314 48.472 60.9329 48.5638 60.9344 48.6609C60.94 49.0066 60.9515 49.7258 61.7239 49.7407L61.7479 49.741C61.9901 49.741 62.1828 49.6679 62.3206 49.5237C62.561 49.2722 62.5443 48.8986 62.5307 48.5984C62.5274 48.5247 62.5243 48.4553 62.5251 48.3946C62.5809 43.869 58.6635 39.7652 54.142 39.6126C54.1232 39.612 54.1053 39.613 54.0872 39.6155C54.0784 39.6168 54.0619 39.6184 54.0337 39.6184C53.9886 39.6184 53.9331 39.6145 53.8743 39.6105C53.8032 39.6057 53.7226 39.6001 53.6408 39.6001C52.9208 39.6001 52.7839 40.1119 52.7664 40.417C52.726 41.1221 53.4081 41.1717 53.7359 41.1956Z" fill="#011109"/>
<path d="M60.71 54.1161C60.6167 54.0447 60.5202 53.971 60.4298 53.8982C59.9504 53.5124 59.4404 53.1568 58.9472 52.8129C58.8448 52.7416 58.7425 52.6702 58.6405 52.5987C58.0087 52.1549 57.4407 51.9392 56.904 51.9392C56.1812 51.9392 55.551 52.3386 55.0309 53.1261C54.8005 53.4752 54.5209 53.645 54.1764 53.645C53.9726 53.645 53.7412 53.5869 53.4884 53.4721C51.4491 52.5474 49.9929 51.1295 49.1602 49.2579C48.7576 48.3533 48.8881 47.762 49.5966 47.2807C49.9989 47.0077 50.7477 46.4993 50.6946 45.5259C50.6346 44.4205 48.1956 41.0945 47.1679 40.7167C46.7328 40.5567 46.2757 40.5552 45.8067 40.713C44.6254 41.1102 43.7776 41.8076 43.3549 42.7298C42.9464 43.621 42.9648 44.6673 43.4082 45.7557C44.6901 48.9027 46.4923 51.6464 48.7651 53.9106C50.9897 56.127 53.7239 57.9425 56.8917 59.3065C57.1772 59.4294 57.4767 59.4964 57.6954 59.5453C57.77 59.5621 57.8343 59.5764 57.8812 59.5892C57.907 59.5962 57.9336 59.6 57.9602 59.6003L57.9853 59.6004C57.9853 59.6004 57.9853 59.6004 57.9854 59.6004C59.4753 59.6004 61.2643 58.2389 61.8138 56.6867C62.2951 55.3276 61.4163 54.6558 60.71 54.1161Z" fill="#011109"/>
<path d="M54.3949 44.7906C54.1398 44.797 53.6089 44.8102 53.4226 45.3509C53.3355 45.6036 53.3459 45.8229 53.4537 46.0029C53.6118 46.267 53.9148 46.348 54.1904 46.3924C55.1899 46.5528 55.7031 47.1054 55.8058 48.1315C55.8535 48.61 56.1757 48.9441 56.5894 48.9441C56.6199 48.9441 56.6512 48.9423 56.6823 48.9385C57.1799 48.8793 57.421 48.5137 57.3992 47.8521C57.4072 47.1616 57.0458 46.3777 56.4312 45.7533C55.8145 45.127 55.0711 44.7742 54.3949 44.7906Z" fill="#011109"/>
</g>
<defs>
<filter id="filter0_d_299_633" x="-0.000195503" y="9.75132e-05" width="105.6" height="105.6" filterUnits="userSpaceOnUse" color-interpolation-filters="sRGB">
<feFlood flood-opacity="0" result="BackgroundImageFix"/>
<feColorMatrix in="SourceAlpha" type="matrix" values="0 0 0 0 0 0 0 0 0 0 0 0 0 0 0 0 0 0 127 0" result="hardAlpha"/>
<feOffset dy="3.2"/>
<feGaussianBlur stdDeviation="6.4"/>
<feComposite in2="hardAlpha" operator="out"/>
<feColorMatrix type="matrix" values="0 0 0 0 0 0 0 0 0 0 0 0 0 0 0 0 0 0 0.1 0"/>
<feBlend mode="normal" in2="BackgroundImageFix" result="effect1_dropShadow_299_633"/>
<feBlend mode="normal" in="SourceGraphic" in2="effect1_dropShadow_299_633" result="shape"/>
</filter>
<filter id="filter1_d_299_633" x="8.00029" y="8.00059" width="89.6" height="89.6" filterUnits="userSpaceOnUse" color-interpolation-filters="sRGB">
<feFlood flood-opacity="0" result="BackgroundImageFix"/>
<feColorMatrix in="SourceAlpha" type="matrix" values="0 0 0 0 0 0 0 0 0 0 0 0 0 0 0 0 0 0 127 0" result="hardAlpha"/>
<feOffset dy="3.2"/>
<feGaussianBlur stdDeviation="6.4"/>
<feComposite in2="hardAlpha" operator="out"/>
<feColorMatrix type="matrix" values="0 0 0 0 0 0 0 0 0 0 0 0 0 0 0 0 0 0 0.1 0"/>
<feBlend mode="normal" in2="BackgroundImageFix" result="effect1_dropShadow_299_633"/>
<feBlend mode="normal" in="SourceGraphic" in2="effect1_dropShadow_299_633" result="shape"/>
</filter>
<filter id="filter2_d_299_633" x="16.0008" y="16.0011" width="73.6" height="73.6" filterUnits="userSpaceOnUse" color-interpolation-filters="sRGB">
<feFlood flood-opacity="0" result="BackgroundImageFix"/>
<feColorMatrix in="SourceAlpha" type="matrix" values="0 0 0 0 0 0 0 0 0 0 0 0 0 0 0 0 0 0 127 0" result="hardAlpha"/>
<feOffset dy="3.2"/>
<feGaussianBlur stdDeviation="6.4"/>
<feComposite in2="hardAlpha" operator="out"/>
<feColorMatrix type="matrix" values="0 0 0 0 0 0 0 0 0 0 0 0 0 0 0 0 0 0 0.1 0"/>
<feBlend mode="normal" in2="BackgroundImageFix" result="effect1_dropShadow_299_633"/>
<feBlend mode="normal" in="SourceGraphic" in2="effect1_dropShadow_299_633" result="shape"/>
</filter>
<clipPath id="clip0_299_633">
<rect width="20" height="20" fill="white" transform="translate(42.7998 39.6001)"/>
</clipPath>
</defs>
</svg>
